<?xml version="1.0" encoding="UTF-8" standalone="no"?>
<!-- Created with Inkscape (http://www.inkscape.org/) -->

<svg
   xmlns:dc="http://purl.org/dc/elements/1.1/"
   xmlns:cc="http://creativecommons.org/ns#"
   xmlns:rdf="http://www.w3.org/1999/02/22-rdf-syntax-ns#"
   xmlns:svg="http://www.w3.org/2000/svg"
   xmlns="http://www.w3.org/2000/svg"
   xmlns:sodipodi="http://sodipodi.sourceforge.net/DTD/sodipodi-0.dtd"
   xmlns:inkscape="http://www.inkscape.org/namespaces/inkscape"
   width="100mm"
   height="35mm"
   viewBox="0 0 354.33071 124.01575"
   id="svg2"
   version="1.1"
   inkscape:version="0.91 r13725"
   sodipodi:docname="logo.svg"
   inkscape:export-filename="/Users/a45kb/Desktop/logo.png"
   inkscape:export-xdpi="127"
   inkscape:export-ydpi="127">
  <defs
     id="defs4" />
  <sodipodi:namedview
     id="base"
     pagecolor="#ffffff"
     bordercolor="#666666"
     borderopacity="1.0"
     inkscape:pageopacity="0.0"
     inkscape:pageshadow="2"
     inkscape:zoom="1.979899"
     inkscape:cx="178.17278"
     inkscape:cy="25.727656"
     inkscape:document-units="px"
     inkscape:current-layer="layer1"
     showgrid="false"
     inkscape:window-width="1235"
     inkscape:window-height="755"
     inkscape:window-x="45"
     inkscape:window-y="1"
     inkscape:window-maximized="1" />
  <metadata
     id="metadata7">
    <rdf:RDF>
      <cc:Work
         rdf:about="">
        <dc:format>image/svg+xml</dc:format>
        <dc:type
           rdf:resource="http://purl.org/dc/dcmitype/StillImage" />
        <dc:title></dc:title>
      </cc:Work>
    </rdf:RDF>
  </metadata>
  <g
     inkscape:label="Livello 1"
     inkscape:groupmode="layer"
     id="layer1"
     transform="translate(0,-928.34646)">
    <g
       id="text4205"
       style="font-style:normal;font-weight:normal;font-size:27.11831284px;line-height:125%;font-family:sans-serif;letter-spacing:0px;word-spacing:0px;fill:#00dfd2;fill-opacity:0.73800737;stroke:none;stroke-width:1px;stroke-linecap:butt;stroke-linejoin:miter;stroke-opacity:1"
       transform="translate(7.6963476,-2.6134571)">
      <path
         inkscape:connector-curvature="0"
         id="path4252"
         style="font-style:italic;font-variant:normal;font-weight:bold;font-stretch:normal;font-family:'Helvetica Neue';-inkscape-font-specification:'Helvetica Neue Bold Italic';fill:#00dfd2;fill-opacity:0.73800737"
         d="m 303.09455,962.10989 3.8508,0 q -0.0271,-1.38303 -0.54236,-2.38641 -0.48813,-1.00338 -1.35592,-1.6271 -0.84067,-0.62372 -1.97964,-0.92202 -1.13897,-0.29831 -2.41353,-0.29831 -1.89828,0 -3.36267,0.70508 -1.46439,0.67796 -2.49488,1.89828 -1.00338,1.19321 -1.54575,2.79319 -0.51524,1.57286 -0.51524,3.36267 0,3.09149 1.62709,4.55588 1.65422,1.43727 4.61012,1.43727 2.76607,0 4.55587,-1.41016 1.81693,-1.43727 2.68472,-4.06774 l -3.8508,0 q -0.16271,0.51525 -0.4339,1.00338 -0.24406,0.46101 -0.65084,0.81354 -0.37965,0.35254 -0.8949,0.56949 -0.48813,0.21695 -1.13897,0.21695 -0.73219,0 -1.24744,-0.24407 -0.48813,-0.24406 -0.81355,-0.65084 -0.32542,-0.40677 -0.46101,-0.94914 -0.13559,-0.56948 -0.13559,-1.19321 0,-0.8949 0.18982,-1.9254 0.21695,-1.05761 0.67796,-1.95251 0.46101,-0.89491 1.22033,-1.46439 0.75931,-0.59661 1.84404,-0.59661 1.30168,0 1.9254,0.54237 0.65084,0.54237 0.65084,1.78981 z" />
      <path
         inkscape:connector-curvature="0"
         id="path4254"
         style="font-style:italic;font-variant:normal;font-weight:bold;font-stretch:normal;font-family:'Helvetica Neue';-inkscape-font-specification:'Helvetica Neue Bold Italic';fill:#00dfd2;fill-opacity:0.73800737"
         d="m 317.10497,961.35058 3.57962,0 q 0.0271,-1.35592 -0.43389,-2.22371 -0.46101,-0.86778 -1.27456,-1.35591 -0.78643,-0.51525 -1.84405,-0.70508 -1.05761,-0.18983 -2.19658,-0.18983 -1.00338,0 -2.11523,0.24407 -1.08473,0.21695 -2.00676,0.75931 -0.92202,0.51525 -1.51862,1.35592 -0.56949,0.84067 -0.56949,2.08811 0,0.84067 0.18983,1.41015 0.21695,0.56948 0.59661,0.97626 0.40677,0.40677 0.94914,0.67796 0.56948,0.27118 1.30168,0.51525 l 2.95589,0.94914 q 0.62372,0.21694 1.00338,0.51524 0.37966,0.29831 0.37966,1.0305 0,0.48813 -0.21695,0.81355 -0.21695,0.2983 -0.56949,0.51525 -0.35253,0.18983 -0.78643,0.27118 -0.43389,0.0814 -0.86778,0.0814 -0.48813,0 -1.00338,-0.10848 -0.48813,-0.13559 -0.8949,-0.35254 -0.37966,-0.24406 -0.62373,-0.5966 -0.24406,-0.35254 -0.24406,-0.84067 l 0,-0.46101 -3.5525,0 0,0.56949 q 0,1.24744 0.54237,2.08811 0.54236,0.81355 1.38303,1.32879 0.86779,0.48813 1.9254,0.70508 1.05762,0.21695 2.08811,0.21695 1.22033,0 2.41353,-0.24407 1.19321,-0.24406 2.14235,-0.81355 0.94914,-0.56948 1.51862,-1.46439 0.59661,-0.92202 0.59661,-2.2237 0,-0.86778 -0.29831,-1.51862 -0.27118,-0.65084 -0.78643,-1.11185 -0.48813,-0.48813 -1.16608,-0.81355 -0.65084,-0.32542 -1.43727,-0.56949 l -1.9254,-0.62372 q -0.97626,-0.2983 -1.38304,-0.62372 -0.37965,-0.32542 -0.37965,-0.78643 0,-0.75931 0.65083,-1.05762 0.67796,-0.32542 1.70846,-0.32542 1.13897,0 1.6271,0.51525 0.51524,0.48813 0.54236,1.38304 z" />
      <path
         inkscape:connector-curvature="0"
         id="path4256"
         style="font-style:italic;font-variant:normal;font-weight:bold;font-stretch:normal;font-family:'Helvetica Neue';-inkscape-font-specification:'Helvetica Neue Bold Italic';fill:#00dfd2;fill-opacity:0.73800737"
         d="m 331.19378,961.35058 3.57962,0 q 0.0271,-1.35592 -0.43389,-2.22371 -0.46101,-0.86778 -1.27456,-1.35591 -0.78643,-0.51525 -1.84405,-0.70508 -1.05761,-0.18983 -2.19658,-0.18983 -1.00338,0 -2.11523,0.24407 -1.08473,0.21695 -2.00675,0.75931 -0.92203,0.51525 -1.51863,1.35592 -0.56948,0.84067 -0.56948,2.08811 0,0.84067 0.18982,1.41015 0.21695,0.56948 0.59661,0.97626 0.40677,0.40677 0.94914,0.67796 0.56948,0.27118 1.30168,0.51525 l 2.95589,0.94914 q 0.62372,0.21694 1.00338,0.51524 0.37966,0.29831 0.37966,1.0305 0,0.48813 -0.21695,0.81355 -0.21695,0.2983 -0.56948,0.51525 -0.35254,0.18983 -0.78644,0.27118 -0.43389,0.0814 -0.86778,0.0814 -0.48813,0 -1.00338,-0.10848 -0.48813,-0.13559 -0.8949,-0.35254 -0.37966,-0.24406 -0.62372,-0.5966 -0.24407,-0.35254 -0.24407,-0.84067 l 0,-0.46101 -3.5525,0 0,0.56949 q 0,1.24744 0.54237,2.08811 0.54236,0.81355 1.38303,1.32879 0.86779,0.48813 1.9254,0.70508 1.05762,0.21695 2.08811,0.21695 1.22033,0 2.41353,-0.24407 1.19321,-0.24406 2.14235,-0.81355 0.94914,-0.56948 1.51862,-1.46439 0.59661,-0.92202 0.59661,-2.2237 0,-0.86778 -0.2983,-1.51862 -0.27119,-0.65084 -0.78644,-1.11185 -0.48813,-0.48813 -1.16608,-0.81355 -0.65084,-0.32542 -1.43727,-0.56949 l -1.9254,-0.62372 q -0.97626,-0.2983 -1.38304,-0.62372 -0.37965,-0.32542 -0.37965,-0.78643 0,-0.75931 0.65084,-1.05762 0.67795,-0.32542 1.70845,-0.32542 1.13897,0 1.6271,0.51525 0.51525,0.48813 0.54236,1.38304 z" />
    </g>
    <text
       xml:space="preserve"
       style="font-style:normal;font-weight:normal;font-size:74.57151031px;line-height:125%;font-family:sans-serif;letter-spacing:0px;word-spacing:0px;fill:#99928d;fill-opacity:1;stroke:none;stroke-width:1px;stroke-linecap:butt;stroke-linejoin:miter;stroke-opacity:1"
       x="32.865402"
       y="1035.1367"
       id="text4280"
       sodipodi:linespacing="125%"><tspan
         sodipodi:role="line"
         id="tspan4282"
         x="32.865402"
         y="1035.1367"
         style="font-style:normal;font-variant:normal;font-weight:normal;font-stretch:normal;font-family:'Fredoka One';-inkscape-font-specification:'Fredoka One';fill:#99928d;fill-opacity:1">checked</tspan></text>
  </g>
</svg>
