<?xml version="1.0" encoding="UTF-8" standalone="no"?>
<!-- Created with Inkscape (http://www.inkscape.org/) -->

<svg
   xmlns:dc="http://purl.org/dc/elements/1.1/"
   xmlns:cc="http://creativecommons.org/ns#"
   xmlns:rdf="http://www.w3.org/1999/02/22-rdf-syntax-ns#"
   xmlns:svg="http://www.w3.org/2000/svg"
   xmlns="http://www.w3.org/2000/svg"
   xmlns:sodipodi="http://sodipodi.sourceforge.net/DTD/sodipodi-0.dtd"
   xmlns:inkscape="http://www.inkscape.org/namespaces/inkscape"
   width="100mm"
   height="35mm"
   viewBox="0 0 354.33071 124.01575"
   id="svg2"
   version="1.1"
   inkscape:version="0.91 r13725"
   sodipodi:docname="logo.svg"
   inkscape:export-filename="/Users/a45kb/Desktop/logo.png"
   inkscape:export-xdpi="127"
   inkscape:export-ydpi="127">
  <defs
     id="defs4" />
  <sodipodi:namedview
     id="base"
     pagecolor="#ffffff"
     bordercolor="#666666"
     borderopacity="1.0"
     inkscape:pageopacity="0.0"
     inkscape:pageshadow="2"
     inkscape:zoom="1.979899"
     inkscape:cx="178.17278"
     inkscape:cy="25.727656"
     inkscape:document-units="px"
     inkscape:current-layer="layer1"
     showgrid="false"
     inkscape:window-width="1391"
     inkscape:window-height="855"
     inkscape:window-x="49"
     inkscape:window-y="1"
     inkscape:window-maximized="1" />
  <metadata
     id="metadata7">
    <rdf:RDF>
      <cc:Work
         rdf:about="">
        <dc:format>image/svg+xml</dc:format>
        <dc:type
           rdf:resource="http://purl.org/dc/dcmitype/StillImage" />
        <dc:title />
      </cc:Work>
    </rdf:RDF>
  </metadata>
  <g
     inkscape:label="Livello 1"
     inkscape:groupmode="layer"
     id="layer1"
     transform="translate(0,-928.34646)">
    <path
       d="m 310.7909,959.49643 3.8508,0 q -0.0271,-1.38303 -0.54236,-2.38641 -0.48813,-1.00338 -1.35592,-1.6271 -0.84067,-0.62372 -1.97964,-0.92202 -1.13897,-0.29831 -2.41353,-0.29831 -1.89828,0 -3.36267,0.70508 -1.46439,0.67796 -2.49488,1.89828 -1.00338,1.19321 -1.54575,2.79319 -0.51524,1.57286 -0.51524,3.36267 0,3.09149 1.62709,4.55588 1.65422,1.43727 4.61012,1.43727 2.76607,0 4.55587,-1.41016 1.81693,-1.43727 2.68472,-4.06774 l -3.8508,0 q -0.16271,0.51525 -0.4339,1.00338 -0.24406,0.46101 -0.65084,0.81354 -0.37965,0.35254 -0.8949,0.56949 -0.48813,0.21695 -1.13897,0.21695 -0.73219,0 -1.24744,-0.24407 -0.48813,-0.24406 -0.81355,-0.65084 -0.32542,-0.40677 -0.46101,-0.94914 -0.13559,-0.56948 -0.13559,-1.19321 0,-0.8949 0.18982,-1.9254 0.21695,-1.05761 0.67796,-1.95251 0.46101,-0.89491 1.22033,-1.46439 0.75931,-0.59661 1.84404,-0.59661 1.30168,0 1.9254,0.54237 0.65084,0.54237 0.65084,1.78981 z"
       style="font-style:italic;font-variant:normal;font-weight:bold;font-stretch:normal;font-size:medium;line-height:125%;font-family:'Helvetica Neue';-inkscape-font-specification:'Helvetica Neue Bold Italic';letter-spacing:0px;word-spacing:0px;fill:#00dfd2;fill-opacity:0.73800737;stroke:none;stroke-width:1px;stroke-linecap:butt;stroke-linejoin:miter;stroke-opacity:1"
       id="path4252"
       inkscape:connector-curvature="0" />
    <path
       d="m 324.80132,958.73712 3.57962,0 q 0.0271,-1.35592 -0.43389,-2.22371 -0.46101,-0.86778 -1.27456,-1.35591 -0.78643,-0.51525 -1.84405,-0.70508 -1.05761,-0.18983 -2.19658,-0.18983 -1.00338,0 -2.11523,0.24407 -1.08473,0.21695 -2.00676,0.75931 -0.92202,0.51525 -1.51862,1.35592 -0.56949,0.84067 -0.56949,2.08811 0,0.84067 0.18983,1.41015 0.21695,0.56948 0.59661,0.97626 0.40677,0.40677 0.94914,0.67796 0.56948,0.27118 1.30168,0.51525 l 2.95589,0.94914 q 0.62372,0.21694 1.00338,0.51524 0.37966,0.29831 0.37966,1.0305 0,0.48813 -0.21695,0.81355 -0.21695,0.2983 -0.56949,0.51525 -0.35253,0.18983 -0.78643,0.27118 -0.43389,0.0814 -0.86778,0.0814 -0.48813,0 -1.00338,-0.10848 -0.48813,-0.13559 -0.8949,-0.35254 -0.37966,-0.24406 -0.62373,-0.5966 -0.24406,-0.35254 -0.24406,-0.84067 l 0,-0.46101 -3.5525,0 0,0.56949 q 0,1.24744 0.54237,2.08811 0.54236,0.81355 1.38303,1.32879 0.86779,0.48813 1.9254,0.70508 1.05762,0.21695 2.08811,0.21695 1.22033,0 2.41353,-0.24407 1.19321,-0.24406 2.14235,-0.81355 0.94914,-0.56948 1.51862,-1.46439 0.59661,-0.92202 0.59661,-2.2237 0,-0.86778 -0.29831,-1.51862 -0.27118,-0.65084 -0.78643,-1.11185 -0.48813,-0.48813 -1.16608,-0.81355 -0.65084,-0.32542 -1.43727,-0.56949 l -1.9254,-0.62372 q -0.97626,-0.2983 -1.38304,-0.62372 -0.37965,-0.32542 -0.37965,-0.78643 0,-0.75931 0.65083,-1.05762 0.67796,-0.32542 1.70846,-0.32542 1.13897,0 1.6271,0.51525 0.51524,0.48813 0.54236,1.38304 z"
       style="font-style:italic;font-variant:normal;font-weight:bold;font-stretch:normal;font-size:medium;line-height:125%;font-family:'Helvetica Neue';-inkscape-font-specification:'Helvetica Neue Bold Italic';letter-spacing:0px;word-spacing:0px;fill:#00dfd2;fill-opacity:0.73800737;stroke:none;stroke-width:1px;stroke-linecap:butt;stroke-linejoin:miter;stroke-opacity:1"
       id="path4254"
       inkscape:connector-curvature="0" />
    <path
       d="m 338.89013,958.73712 3.57962,0 q 0.0271,-1.35592 -0.43389,-2.22371 -0.46101,-0.86778 -1.27456,-1.35591 -0.78643,-0.51525 -1.84405,-0.70508 -1.05761,-0.18983 -2.19658,-0.18983 -1.00338,0 -2.11523,0.24407 -1.08473,0.21695 -2.00675,0.75931 -0.92203,0.51525 -1.51863,1.35592 -0.56948,0.84067 -0.56948,2.08811 0,0.84067 0.18982,1.41015 0.21695,0.56948 0.59661,0.97626 0.40677,0.40677 0.94914,0.67796 0.56948,0.27118 1.30168,0.51525 l 2.95589,0.94914 q 0.62372,0.21694 1.00338,0.51524 0.37966,0.29831 0.37966,1.0305 0,0.48813 -0.21695,0.81355 -0.21695,0.2983 -0.56948,0.51525 -0.35254,0.18983 -0.78644,0.27118 -0.43389,0.0814 -0.86778,0.0814 -0.48813,0 -1.00338,-0.10848 -0.48813,-0.13559 -0.8949,-0.35254 -0.37966,-0.24406 -0.62372,-0.5966 -0.24407,-0.35254 -0.24407,-0.84067 l 0,-0.46101 -3.5525,0 0,0.56949 q 0,1.24744 0.54237,2.08811 0.54236,0.81355 1.38303,1.32879 0.86779,0.48813 1.9254,0.70508 1.05762,0.21695 2.08811,0.21695 1.22033,0 2.41353,-0.24407 1.19321,-0.24406 2.14235,-0.81355 0.94914,-0.56948 1.51862,-1.46439 0.59661,-0.92202 0.59661,-2.2237 0,-0.86778 -0.2983,-1.51862 -0.27119,-0.65084 -0.78644,-1.11185 -0.48813,-0.48813 -1.16608,-0.81355 -0.65084,-0.32542 -1.43727,-0.56949 l -1.9254,-0.62372 q -0.97626,-0.2983 -1.38304,-0.62372 -0.37965,-0.32542 -0.37965,-0.78643 0,-0.75931 0.65084,-1.05762 0.67795,-0.32542 1.70845,-0.32542 1.13897,0 1.6271,0.51525 0.51525,0.48813 0.54236,1.38304 z"
       style="font-style:italic;font-variant:normal;font-weight:bold;font-stretch:normal;font-size:medium;line-height:125%;font-family:'Helvetica Neue';-inkscape-font-specification:'Helvetica Neue Bold Italic';letter-spacing:0px;word-spacing:0px;fill:#00dfd2;fill-opacity:0.73800737;stroke:none;stroke-width:1px;stroke-linecap:butt;stroke-linejoin:miter;stroke-opacity:1"
       id="path4256"
       inkscape:connector-curvature="0" />
    <path
       inkscape:connector-curvature="0"
       id="path3340"
       style="font-style:normal;font-variant:normal;font-weight:normal;font-stretch:normal;font-size:medium;line-height:125%;font-family:'Fredoka One';-inkscape-font-specification:'Fredoka One';letter-spacing:0px;word-spacing:0px;fill:#99928d;fill-opacity:1;stroke:none;stroke-width:1px;stroke-linecap:butt;stroke-linejoin:miter;stroke-opacity:1"
       d="m 48.152562,1015.5244 q 0,3.132 2.088002,4.9217 2.088002,1.7152 4.399719,1.7152 2.386289,0 4.399719,-1.3423 2.088003,-1.4169 3.355718,-1.4169 2.237146,0 5.443721,3.9523 1.715144,2.1626 1.715144,3.8777 0,2.8338 -4.101433,5.2946 -4.250576,2.9829 -10.440011,2.9829 -6.935151,0 -13.348301,-4.9963 -3.057431,-2.3863 -4.996291,-6.3386 -1.938859,-4.0269 -1.938859,-8.7994 0,-4.8472 1.938859,-8.7249 1.93886,-3.9523 4.996291,-6.3386 6.189436,-4.9217 13.199158,-4.9217 2.833717,0 5.518292,0.82029 2.684574,0.74572 3.95229,1.49143 l 1.193144,0.74572 q 1.342287,0.89485 2.088002,1.41685 1.938859,1.49141 1.938859,3.43031 0,1.8643 -1.566001,4.2506 -2.684575,4.1014 -5.145435,4.1014 -1.416858,0 -4.026861,-1.6406 -1.342287,-1.2677 -3.877719,-1.2677 -2.46086,0 -4.623433,1.7897 -2.162574,1.7897 -2.162574,4.9963 z" />
    <path
       inkscape:connector-curvature="0"
       id="path3342"
       style="font-style:normal;font-variant:normal;font-weight:normal;font-stretch:normal;font-size:medium;line-height:125%;font-family:'Fredoka One';-inkscape-font-specification:'Fredoka One';letter-spacing:0px;word-spacing:0px;fill:#99928d;fill-opacity:1;stroke:none;stroke-width:1px;stroke-linecap:butt;stroke-linejoin:miter;stroke-opacity:1"
       d="m 95.782785,995.98668 q 7.457155,0 12.378875,5.66742 4.99629,5.6674 4.99629,13.8703 l 0,13.1246 q 0,1.7151 -0.14915,2.61 -0.0746,0.8203 -0.67114,1.9389 -0.96943,1.9388 -5.74201,1.9388 -4.54886,0 -5.66743,-1.9388 -0.59657,-1.1186 -0.74572,-2.0135 -0.0746,-0.8948 -0.0746,-2.6845 l 0,-13.0501 q 0,-3.0574 -1.715142,-4.7725 -1.715145,-1.7152 -4.399719,-1.7152 -2.610003,0 -4.623434,1.6406 -2.013431,1.566 -2.311717,3.5794 l 0,14.4669 q 0,1.7151 -0.149143,2.61 -0.07457,0.8203 -0.671143,1.9389 -0.96943,1.9388 -5.742007,1.9388 -4.698005,0 -5.742006,-2.0134 -0.522001,-1.1186 -0.671144,-1.9389 -0.07457,-0.8203 -0.07457,-2.61 l 0,-44.59374 q 0,-1.71514 0.07457,-2.53543 0.149143,-0.89486 0.671144,-1.93886 1.044001,-2.01343 5.816578,-2.01343 4.698005,0 5.667435,2.01343 0.596572,1.11857 0.671143,2.01343 0.149143,0.82029 0.149143,2.53543 l 0,16.48027 q 3.728576,-4.54882 8.724867,-4.54882 z" />
    <path
       inkscape:connector-curvature="0"
       id="path3344"
       style="font-style:normal;font-variant:normal;font-weight:normal;font-stretch:normal;font-size:medium;line-height:125%;font-family:'Fredoka One';-inkscape-font-specification:'Fredoka One';letter-spacing:0px;word-spacing:0px;fill:#99928d;fill-opacity:1;stroke:none;stroke-width:1px;stroke-linecap:butt;stroke-linejoin:miter;stroke-opacity:1"
       d="m 156.89531,1010.8264 q 0,4.5489 -2.31172,6.786 -2.23714,2.1626 -4.99629,2.1626 l -17.67345,0 q 0,2.088 2.46086,3.5048 2.46086,1.4169 4.92172,1.4169 4.32515,0 6.78601,-0.8949 l 0.82029,-0.2982 q 1.78971,-0.8203 2.98286,-0.8203 2.38628,0 4.10143,3.3557 0.96943,2.0134 0.96943,3.4303 0,6.6368 -15.88373,6.6368 -5.51829,0 -9.84344,-1.8642 -4.25058,-1.9389 -6.63687,-5.0709 -4.698,-6.0403 -4.698,-13.4974 0,-9.3961 6.04029,-14.9889 6.11486,-5.66745 15.21259,-5.66745 10.36544,0 15.21259,7.30805 2.53543,3.8777 2.53543,8.5011 z m -15.73459,2.1626 q 2.83372,0 2.83372,-2.3863 0,-1.7152 -1.34229,-2.7592 -1.26772,-1.044 -3.72858,-1.044 -2.38628,0 -4.77257,2.0135 -2.38629,1.9388 -2.38629,4.176 l 9.39601,0 z" />
    <path
       inkscape:connector-curvature="0"
       id="path3346"
       style="font-style:normal;font-variant:normal;font-weight:normal;font-stretch:normal;font-size:medium;line-height:125%;font-family:'Fredoka One';-inkscape-font-specification:'Fredoka One';letter-spacing:0px;word-spacing:0px;fill:#99928d;fill-opacity:1;stroke:none;stroke-width:1px;stroke-linecap:butt;stroke-linejoin:miter;stroke-opacity:1"
       d="m 174.13764,1015.5244 q 0,3.132 2.088,4.9217 2.088,1.7152 4.39972,1.7152 2.38629,0 4.39972,-1.3423 2.088,-1.4169 3.35572,-1.4169 2.23714,0 5.44372,3.9523 1.71514,2.1626 1.71514,3.8777 0,2.8338 -4.10143,5.2946 -4.25058,2.9829 -10.44001,2.9829 -6.93515,0 -13.3483,-4.9963 -3.05743,-2.3863 -4.99629,-6.3386 -1.93886,-4.0269 -1.93886,-8.7994 0,-4.8472 1.93886,-8.7249 1.93886,-3.9523 4.99629,-6.3386 6.18943,-4.9217 13.19915,-4.9217 2.83372,0 5.5183,0.82029 2.68457,0.74572 3.95229,1.49143 l 1.19314,0.74572 q 1.34229,0.89485 2.088,1.41685 1.93886,1.49141 1.93886,3.43031 0,1.8643 -1.566,4.2506 -2.68457,4.1014 -5.14543,4.1014 -1.41686,0 -4.02687,-1.6406 -1.34228,-1.2677 -3.87771,-1.2677 -2.46086,0 -4.62344,1.7897 -2.16257,1.7897 -2.16257,4.9963 z" />
    <path
       inkscape:connector-curvature="0"
       id="path3348"
       style="font-style:normal;font-variant:normal;font-weight:normal;font-stretch:normal;font-size:medium;line-height:125%;font-family:'Fredoka One';-inkscape-font-specification:'Fredoka One';letter-spacing:0px;word-spacing:0px;fill:#99928d;fill-opacity:1;stroke:none;stroke-width:1px;stroke-linecap:butt;stroke-linejoin:miter;stroke-opacity:1"
       d="m 223.5471,1015.4498 9.91801,8.2029 q 1.86428,1.566 2.31171,2.3863 0.522,0.8203 0.522,1.566 0,1.7897 -2.31171,4.8471 -2.53543,3.132 -4.47429,3.132 -1.64058,0 -4.54887,-2.1625 l -0.74571,-0.522 q -1.71515,-1.4169 -5.29458,-4.9217 -3.57943,-3.5795 -5.44372,-5.0709 l 0,5.742 q 0,1.7151 -0.14914,2.61 -0.0746,0.8203 -0.67114,1.9389 -0.96943,1.9388 -5.74201,1.9388 -4.69801,0 -5.74201,-2.0134 -0.522,-1.1186 -0.67114,-1.9389 -0.0746,-0.8948 -0.0746,-2.61 l 0,-44.66831 q 0,-1.71514 0.0746,-2.53543 0.14914,-0.89486 0.67114,-2.01343 1.044,-2.01343 5.81658,-2.01343 3.57943,0 5.07086,1.26771 1.26772,1.04401 1.34229,3.28115 0.0746,0.67114 0.0746,2.088 l 0,23.63914 q 1.34229,-1.1185 4.02686,-3.8031 2.75915,-2.6846 4.10144,-3.8032 l 0.89485,-0.59653 q 2.61001,-2.01344 4.4743,-2.01344 1.86428,0 4.25057,3.05747 2.46086,2.9828 2.46086,4.698 0,1.7151 -2.75914,4.0268 l -7.38258,6.264 z" />
    <path
       inkscape:connector-curvature="0"
       id="path3350"
       style="font-style:normal;font-variant:normal;font-weight:normal;font-stretch:normal;font-size:medium;line-height:125%;font-family:'Fredoka One';-inkscape-font-specification:'Fredoka One';letter-spacing:0px;word-spacing:0px;fill:#99928d;fill-opacity:1;stroke:none;stroke-width:1px;stroke-linecap:butt;stroke-linejoin:miter;stroke-opacity:1"
       d="m 276.03494,1010.8264 q 0,4.5489 -2.31172,6.786 -2.23714,2.1626 -4.99629,2.1626 l -17.67344,0 q 0,2.088 2.46086,3.5048 2.46086,1.4169 4.92172,1.4169 4.32514,0 6.786,-0.8949 l 0.82029,-0.2982 q 1.78972,-0.8203 2.98286,-0.8203 2.38629,0 4.10143,3.3557 0.96943,2.0134 0.96943,3.4303 0,6.6368 -15.88373,6.6368 -5.51829,0 -9.84344,-1.8642 -4.25057,-1.9389 -6.63686,-5.0709 -4.69801,-6.0403 -4.69801,-13.4974 0,-9.3961 6.04029,-14.9889 6.11487,-5.66745 15.21259,-5.66745 10.36544,0 15.21259,7.30805 2.53543,3.8777 2.53543,8.5011 z m -15.73459,2.1626 q 2.83372,0 2.83372,-2.3863 0,-1.7152 -1.34229,-2.7592 -1.26771,-1.044 -3.72857,-1.044 -2.38629,0 -4.77258,2.0135 -2.38629,1.9388 -2.38629,4.176 l 9.39601,0 z" />
    <path
       inkscape:connector-curvature="0"
       id="path3352"
       style="font-style:normal;font-variant:normal;font-weight:normal;font-stretch:normal;font-size:medium;line-height:125%;font-family:'Fredoka One';-inkscape-font-specification:'Fredoka One';letter-spacing:0px;word-spacing:0px;fill:#99928d;fill-opacity:1;stroke:none;stroke-width:1px;stroke-linecap:butt;stroke-linejoin:miter;stroke-opacity:1"
       d="m 307.29672,979.50637 q 0.59657,-1.11857 2.01343,-1.566 1.41686,-0.44743 3.72857,-0.44743 2.38629,0 3.80315,0.44743 1.41686,0.44743 1.93886,1.566 0.59657,1.11857 0.67114,2.01343 0.14915,0.82029 0.14915,2.53543 l 0,44.51917 q 0,1.7152 -0.14915,2.61 -0.0746,0.8203 -0.67114,1.8643 -1.11857,2.0134 -6.33858,2.0134 -5.14543,0 -5.74201,-3.654 -3.132,3.5795 -8.72486,3.5795 -6.71144,0 -12.22973,-5.8166 -5.51829,-5.8912 -5.51829,-13.6466 0,-7.83 5.51829,-13.7211 5.59286,-5.8912 12.22973,-5.8912 5.51829,0 8.57572,3.72858 l 0,-15.66002 q 0,-1.71514 0.0746,-2.53543 0.14915,-0.89486 0.67115,-1.93886 z m -12.08059,40.49233 q 1.93886,2.0134 4.69801,2.0134 2.75914,0 4.54886,-2.0134 1.86429,-2.0134 1.86429,-4.3997 0,-2.4609 -1.78972,-4.5489 -1.71514,-2.088 -4.69801,-2.088 -2.98286,0 -4.77257,2.088 -1.78972,2.0135 -1.78972,4.4743 0,2.4609 1.93886,4.4743 z" />
  </g>
</svg>
